<?xml version="1.0" encoding="UTF-8" standalone="no"?>
<svg
   xmlns:dc="http://purl.org/dc/elements/1.1/"
   xmlns:cc="http://creativecommons.org/ns#"
   xmlns:rdf="http://www.w3.org/1999/02/22-rdf-syntax-ns#"
   xmlns:svg="http://www.w3.org/2000/svg"
   xmlns="http://www.w3.org/2000/svg"
   height="512"
   version="1.1"
   viewBox="0 0 447 512"
   width="447"
   xml:space="preserve"
   id="svg34"><metadata
     id="metadata40"><rdf:RDF><cc:Work
         rdf:about=""><dc:format>image/svg+xml</dc:format><dc:type
           rdf:resource="http://purl.org/dc/dcmitype/StillImage" /><dc:title></dc:title></cc:Work></rdf:RDF></metadata><defs
     id="defs38" /><g
     id="_x39_1-discord"
     transform="matrix(1.1708644,0,0,1.1708644,-75.665991,-42.738895)"><g
       id="g30"><path
         d="M 447.249,82.455 V 474.57 C 392.184,425.909 409.795,442.017 345.831,382.552 L 350,422.987 H 109.557 c -24.698,0 -44.806,-20.106 -44.806,-45.026 V 82.455 c 0,-24.917 20.107,-45.025 44.806,-45.025 H 402.44 c 24.7,0 44.809,20.108 44.809,45.025 z"
         style="fill:#8a9cfe"
         id="path26" /><path
         d="m 353.481,162.233 c -31.474,-23.605 -61.418,-22.95 -61.418,-22.95 l -3.06,3.498 c 37.157,11.365 54.425,27.758 54.425,27.758 -51.921,-28.456 -112.91,-28.46 -163.273,-6.338 -8.088,3.715 -12.896,6.338 -12.896,6.338 0,0 18.142,-17.267 57.485,-28.632 l -2.185,-2.624 c 0,0 -29.945,-0.655 -61.419,22.95 0,0 -31.474,57.047 -31.474,127.426 0,0 18.361,31.692 66.663,33.223 0,0 8.088,-9.834 14.645,-18.142 -27.759,-8.306 -38.249,-25.789 -38.249,-25.789 3.215,2.248 8.517,5.168 8.961,5.463 36.892,20.662 89.295,27.43 136.388,7.65 7.648,-2.841 16.174,-6.995 25.135,-12.896 0,0 -10.929,17.924 -39.562,26.01 6.559,8.305 14.427,17.703 14.427,17.703 48.304,-1.53 66.881,-33.223 66.881,-33.223 0,-70.378 -31.474,-127.425 -31.474,-127.425 z m -137.043,107.1 c -12.24,0 -22.295,-10.928 -22.295,-24.262 0,-13.333 9.836,-24.261 22.295,-24.261 12.458,0 22.513,10.928 22.294,24.261 0,13.334 -9.836,24.262 -22.294,24.262 z m 79.778,0 c -12.239,0 -22.294,-10.928 -22.294,-24.262 0,-13.333 9.836,-24.261 22.294,-24.261 12.459,0 22.295,10.928 22.295,24.261 0,13.334 -9.836,24.262 -22.295,24.262 z"
         style="fill:#fdfdfd"
         id="path28" /></g></g><g
     id="Layer_1" /></svg>
