<?xml version="1.0" encoding="UTF-8" standalone="no"?>
<svg
   xmlns:dc="http://purl.org/dc/elements/1.1/"
   xmlns:cc="http://creativecommons.org/ns#"
   xmlns:rdf="http://www.w3.org/1999/02/22-rdf-syntax-ns#"
   xmlns:svg="http://www.w3.org/2000/svg"
   xmlns="http://www.w3.org/2000/svg"
   height="471"
   version="1.1"
   viewBox="0 0 469.73615 471"
   width="469.73615"
   xml:space="preserve"
   id="svg16"><metadata
     id="metadata22"><rdf:RDF><cc:Work
         rdf:about=""><dc:format>image/svg+xml</dc:format><dc:type
           rdf:resource="http://purl.org/dc/dcmitype/StillImage" /><dc:title></dc:title></cc:Work></rdf:RDF></metadata><defs
     id="defs20" /><g
     id="_x31_06-google_duo"
     transform="matrix(0.9844042,0,0,0.9844042,-16.942467,-16.15112)"><g
       id="g12"><g
         id="g10"><g
           id="g8"><g
             id="g4"><path
               d="M 464.566,16.407 H 264.082 c -129.357,0 -237.531,97.463 -246.273,221.902 -4.889,69.496 20.371,137.478 69.281,186.525 44.92,45.034 105.703,70.035 168.994,70.035 5.639,0 11.301,-0.178 17.002,-0.596 C 397.158,485.512 494.389,377.04 494.389,247.335 V 46.313 c 0,-16.476 -13.366,-29.906 -29.823,-29.906 z m 0,0"
               style="fill:#2299f8"
               id="path2" /></g><path
             d="m 404.912,300.512 c 0,5.176 -2.686,9.989 -7.074,12.741 -4.348,2.663 -9.867,2.99 -14.492,0.629 L 345.26,294.803 v 35.616 c 0,8.255 -6.68,14.952 -14.912,14.952 H 151.399 c -8.236,0 -14.916,-6.697 -14.916,-14.952 v -149.53 c 0,-8.257 6.68,-14.953 14.916,-14.953 h 178.949 c 8.232,0 14.912,6.696 14.912,14.953 v 35.618 l 38.059,-19.081 c 4.594,-2.332 10.145,-2.063 14.496,0.659 4.412,2.724 7.098,7.537 7.098,12.713 v 89.714 z m 0,0"
             style="fill:#f1f5f7"
             id="path6" /></g></g></g></g><g
     id="Layer_1"
     transform="translate(-2.7544193,-0.74582671)" /></svg>
