<?xml version="1.0" encoding="UTF-8" standalone="no"?>
<svg
   xmlns:dc="http://purl.org/dc/elements/1.1/"
   xmlns:cc="http://creativecommons.org/ns#"
   xmlns:rdf="http://www.w3.org/1999/02/22-rdf-syntax-ns#"
   xmlns:svg="http://www.w3.org/2000/svg"
   xmlns="http://www.w3.org/2000/svg"
   xmlns:sodipodi="http://sodipodi.sourceforge.net/DTD/sodipodi-0.dtd"
   xmlns:inkscape="http://www.inkscape.org/namespaces/inkscape"
   height="32.412838"
   viewBox="0 0 42 32.412838"
   width="42"
   version="1.1"
   id="svg12"
   sodipodi:docname="gmail.svg"
   inkscape:version="1.0.2-2 (e86c870879, 2021-01-15)">
  <metadata
     id="metadata18">
    <rdf:RDF>
      <cc:Work
         rdf:about="">
        <dc:format>image/svg+xml</dc:format>
        <dc:type
           rdf:resource="http://purl.org/dc/dcmitype/StillImage" />
        <dc:title></dc:title>
      </cc:Work>
    </rdf:RDF>
  </metadata>
  <defs
     id="defs16" />
  <sodipodi:namedview
     pagecolor="#ffffff"
     bordercolor="#666666"
     borderopacity="1"
     objecttolerance="10"
     gridtolerance="10"
     guidetolerance="10"
     inkscape:pageopacity="0"
     inkscape:pageshadow="2"
     inkscape:window-width="1920"
     inkscape:window-height="1017"
     id="namedview14"
     showgrid="false"
     fit-margin-top="0"
     fit-margin-left="0"
     fit-margin-right="0"
     fit-margin-bottom="0"
     inkscape:zoom="17.708334"
     inkscape:cx="18.228179"
     inkscape:cy="12.517703"
     inkscape:window-x="-8"
     inkscape:window-y="-8"
     inkscape:window-maximized="1"
     inkscape:current-layer="svg12"
     inkscape:document-rotation="0" />
  <path
     d="m 42,3.987104 -5,3.2844861 -5,5.6732029 v 19.468044 h 7 c 1.657,0 3,-1.604024 3,-3.583076 z"
     fill="#4caf50"
     id="path2"
     style="stroke-width:1.09287" />
  <path
     d="M 0,4.3720867 3.614,6.3867791 10,13.208457 v 19.20438 H 3 c -1.657,0 -3,-1.5823 -3,-3.534548 z"
     fill="#1e88e5"
     id="path4"
     style="stroke-width:1.08544" />
  <polygon
     fill="#e53935"
     points="35,11.2 24,19.45 13,11.2 12,17 13,23.7 24,31.95 35,23.7 36,17 "
     id="polygon6"
     transform="matrix(1,0,0,1.0172375,-3,-8.1378994)" />
  <path
     d="M 0,4.3720867 V 8.3413471 L 10,15.970628 V 3.2551599 L 6.876,0.8738071 C 6.132,0.3061885 5.228,0 4.298,0 V 0 C 1.924,0 0,1.9571649 0,4.3720867 Z"
     fill="#c62828"
     id="path8"
     style="stroke-width:1.00859" />
  <path
     d="M 42,4.3720867 V 8.3413471 L 32,15.970628 V 3.2551599 L 35.124,0.8738071 C 35.868,0.3061885 36.772,0 37.702,0 V 0 C 40.076,0 42,1.9571649 42,4.3720867 Z"
     fill="#fbc02d"
     id="path10"
     style="stroke-width:1.00859" />
</svg>
