<?xml version="1.0" encoding="UTF-8" standalone="no"?>
<svg
   xmlns:dc="http://purl.org/dc/elements/1.1/"
   xmlns:cc="http://creativecommons.org/ns#"
   xmlns:rdf="http://www.w3.org/1999/02/22-rdf-syntax-ns#"
   xmlns:svg="http://www.w3.org/2000/svg"
   xmlns="http://www.w3.org/2000/svg"
   xmlns:sodipodi="http://sodipodi.sourceforge.net/DTD/sodipodi-0.dtd"
   xmlns:inkscape="http://www.inkscape.org/namespaces/inkscape"
   height="256.00299"
   style="clip-rule:evenodd;fill-rule:evenodd;image-rendering:optimizeQuality;shape-rendering:geometricPrecision;text-rendering:geometricPrecision"
   version="1.1"
   viewBox="0 0 219274.77 255696.78"
   width="219.27306"
   xml:space="preserve"
   id="svg17"
   sodipodi:docname="hangouts.svg"
   inkscape:version="1.0.2-2 (e86c870879, 2021-01-15)"><metadata
     id="metadata21"><rdf:RDF><cc:Work
         rdf:about=""><dc:format>image/svg+xml</dc:format><dc:type
           rdf:resource="http://purl.org/dc/dcmitype/StillImage" /><dc:title></dc:title></cc:Work></rdf:RDF></metadata><sodipodi:namedview
     pagecolor="#ffffff"
     bordercolor="#666666"
     borderopacity="1"
     objecttolerance="10"
     gridtolerance="10"
     guidetolerance="10"
     inkscape:pageopacity="0"
     inkscape:pageshadow="2"
     inkscape:window-width="1920"
     inkscape:window-height="1017"
     id="namedview19"
     showgrid="false"
     fit-margin-top="0"
     fit-margin-left="0"
     fit-margin-right="0"
     fit-margin-bottom="0"
     inkscape:zoom="2.3116952"
     inkscape:cx="112.61979"
     inkscape:cy="143.77109"
     inkscape:window-x="-8"
     inkscape:window-y="-8"
     inkscape:window-maximized="1"
     inkscape:current-layer="svg17" /><defs
     id="defs4"><style
       type="text/css"
       id="style2">
   <![CDATA[
    .fil3 {fill:none}
    .fil1 {fill:#139A58}
    .fil2 {fill:#FFFFFE}
    .fil0 {fill:#212121;fill-rule:nonzero}
   ]]>
  </style></defs><g
     id="Layer_x0020_1"
     transform="translate(-18352.943,-3840.325)"><path
       class="fil0"
       d="m 119827,9340 c 35,0 72,0 89,0 l -1,-7 z"
       id="path6" /><path
       class="fil1"
       d="m 226063,64156 c -4637,-9249 -10607,-17811 -17910,-25680 -3091,-3331 -6363,-6441 -9810,-9326 -3458,-2894 -7102,-5571 -10932,-8033 -7095,-4561 -14526,-8245 -22299,-11044 -7778,-2801 -15853,-4701 -24230,-5691 -727,-86 -1475,-139 -2220,-193 -1189,-86 -2379,-171 -3468,-431 l -625,-74 h -14145 -1781 l -153,358 c -1541,144 -3074,306 -4593,497 -1898,240 -3761,522 -5570,865 C 94865,7955 82599,12542 71551,19168 60520,25785 50723,34420 42184,45074 35169,53826 29723,63219 25816,73220 c -3939,10087 -6315,20782 -7154,32047 -407,5440 -411,10859 -18,16247 392,5372 1187,10731 2385,16070 h 2 c 896,3998 2009,7914 3343,11738 1337,3833 2881,7561 4638,11171 l 21,21 208,413 c 547,1093 299,624 709,1428 l 3,-2 c 2917,5744 6257,11181 10047,16293 3793,5118 8031,9902 12742,14328 2494,2346 5058,4565 7700,6643 2675,2102 5443,4074 8317,5897 8819,5599 18055,9864 27715,12759 9223,2765 18836,4273 28845,4493 -39,8381 -34,16767 -30,25152 l 4,6441 c 1,423 16,695 32,995 l 26,482 165,3853 3561,-1461 278,-114 c 276,-111 492,-197 635,-264 l -2,-5 c 10336,-4856 20255,-10356 29712,-16569 9486,-6233 18482,-13160 26939,-20848 1661,-1509 3320,-3088 4977,-4734 1641,-1627 3228,-3271 4767,-4930 660,-709 1220,-1320 1774,-1925 741,-805 1480,-1612 2157,-2336 1372,-1468 2588,-2997 3802,-4525 655,-823 1311,-1648 2001,-2471 1134,-1352 2219,-2762 3278,-4202 991,-1348 2007,-2797 3028,-4266 2193,-3161 4278,-6406 6236,-9746 1970,-3361 3789,-6781 5437,-10265 815,-1722 1625,-3485 2427,-5316 732,-1673 1441,-3369 2116,-5101 93,-142 185,-313 274,-552 l -4,-2 c 1933,-5030 3516,-10130 4777,-15292 1275,-5215 2223,-10464 2875,-15739 229,-1846 418,-3702 573,-5566 143,-1726 263,-3593 361,-5573 202,-4044 174,-8066 -88,-12059 -261,-3989 -756,-7980 -1487,-11966 -1937,-10561 -5223,-20466 -9857,-29706 z"
       id="path8" /><path
       class="fil2"
       d="m 120284,87426 c 1,-4820 2,-11067 -7883,-11059 -7210,9 -14418,9 -21626,8 -5183,0 -10366,0 -15548,2 v -11 c -3208,0 -5229,1327 -6478,3362 -1071,1747 -1404,3905 -1404,6072 h 11 l -12,13173 c -9,8278 -18,16557 -20,24834 0,2347 828,4360 2264,5821 1437,1462 3442,2323 5784,2362 579,9 1168,8 1756,6 281,-1 562,-3 843,-1 l 5415,9 14585,28 c -145,385 -306,759 -484,1119 -612,1247 -1443,2398 -2555,3430 -888,824 -1881,1427 -2945,1891 -1143,498 -2400,854 -3715,1154 -1677,385 -2850,940 -3713,1851 -1000,1054 -1382,2290 -1385,3929 l -13,3323 c -13,3172 -26,6349 14,9509 4,314 24,588 58,824 v 11 c 209,1422 889,2581 1902,3397 971,780 2205,1200 3579,1183 h 10 c 330,-3 632,-25 900,-65 8790,-1288 16570,-5386 22098,-11499 5330,-5894 8551,-13637 8558,-22526 7,-10101 6,-20201 5,-30302 l -1,-11707 h 10 v -128 z"
       id="path10" /><path
       class="fil2"
       d="m 134585,85800 -12,13173 c -8,8278 -18,16557 -20,24834 -1,2347 828,4360 2263,5821 1440,1462 3442,2323 5785,2362 578,9 1167,8 1756,6 281,-1 562,-3 844,-1 l 5414,9 14585,28 c -145,385 -307,759 -484,1119 -613,1247 -1443,2398 -2555,3430 -888,824 -1882,1427 -2945,1891 -1142,498 -2401,854 -3715,1154 -1677,385 -2850,940 -3713,1851 -1000,1054 -1383,2290 -1386,3929 l -12,3323 c -13,3172 -27,6349 15,9509 3,314 23,588 57,824 v 11 c 208,1422 887,2581 1902,3397 971,782 2205,1200 3578,1183 h 10 c 331,-3 632,-25 902,-65 8789,-1288 16569,-5386 22097,-11499 5330,-5894 8551,-13637 8558,-22526 7,-10051 6,-20102 5,-30152 l -1,-11857 h 11 v -128 h -11 c 1,-4820 2,-11067 -7883,-11059 -7209,9 -14418,9 -21626,8 -5183,0 -10366,0 -15548,2 v -11 c -3208,0 -5229,1327 -6478,3362 -1071,1747 -1404,3905 -1404,6072 z"
       id="path12" /></g><rect
     class="fil3"
     height="256002"
     width="256002"
     id="rect15"
     x="-18352.943"
     y="-3840.325" /></svg>
