<?xml version="1.0" encoding="UTF-8" standalone="no"?>
<svg
   xmlns:dc="http://purl.org/dc/elements/1.1/"
   xmlns:cc="http://creativecommons.org/ns#"
   xmlns:rdf="http://www.w3.org/1999/02/22-rdf-syntax-ns#"
   xmlns:svg="http://www.w3.org/2000/svg"
   xmlns="http://www.w3.org/2000/svg"
   xmlns:sodipodi="http://sodipodi.sourceforge.net/DTD/sodipodi-0.dtd"
   xmlns:inkscape="http://www.inkscape.org/namespaces/inkscape"
   id="Capa_1"
   version="1.1"
   viewBox="0 0 128.33783 118.5"
   xml:space="preserve"
   sodipodi:docname="outlook.svg"
   width="128.33783"
   height="118.5"
   inkscape:version="1.0.2-2 (e86c870879, 2021-01-15)"><metadata
     id="metadata45"><rdf:RDF><cc:Work
         rdf:about=""><dc:format>image/svg+xml</dc:format><dc:type
           rdf:resource="http://purl.org/dc/dcmitype/StillImage" /><dc:title></dc:title></cc:Work></rdf:RDF></metadata><defs
     id="defs43" /><sodipodi:namedview
     pagecolor="#ffffff"
     bordercolor="#666666"
     borderopacity="1"
     objecttolerance="10"
     gridtolerance="10"
     guidetolerance="10"
     inkscape:pageopacity="0"
     inkscape:pageshadow="2"
     inkscape:window-width="1920"
     inkscape:window-height="1017"
     id="namedview41"
     showgrid="false"
     fit-margin-top="0"
     fit-margin-left="0"
     fit-margin-right="0"
     fit-margin-bottom="0"
     inkscape:zoom="4.695631"
     inkscape:cx="59.846575"
     inkscape:cy="75.654309"
     inkscape:window-x="-8"
     inkscape:window-y="-8"
     inkscape:window-maximized="1"
     inkscape:current-layer="Capa_1" /><style
     type="text/css"
     id="style2">
	.st0{fill:#21A365;}
	.st1{fill:#107C41;}
	.st2{fill:#185B37;}
	.st3{fill:#33C481;}
	.st4{fill:#17864C;}
	.st5{fill:#FFFFFF;}
	.st6{fill:#036C70;}
	.st7{fill:#1A9BA1;}
	.st8{fill:#37C6D0;}
	.st9{fill:#04878B;}
	.st10{fill:#4F59CA;}
	.st11{fill:#7B82EA;}
	.st12{fill:#4C53BB;}
	.st13{fill:#0F78D5;}
	.st14{fill:#29A7EB;}
	.st15{fill:#0358A8;}
	.st16{fill:#0F79D6;}
	.st17{fill:#038387;}
	.st18{fill:#048A8E;}
	.st19{fill:#C8421D;}
	.st20{fill:#FF8F6A;}
	.st21{fill:#ED6B47;}
	.st22{fill:#891323;}
	.st23{fill:#AF2131;}
	.st24{fill:#C94E60;}
	.st25{fill:#E08195;}
	.st26{fill:#B42839;}
	.st27{fill:#0464B8;}
	.st28{fill:#0377D4;}
	.st29{fill:#4FD8FF;}
	.st30{fill:#1681D7;}
	.st31{fill:#0178D4;}
	.st32{fill:#042071;}
	.st33{fill:#168FDE;}
	.st34{fill:#CA64EA;}
	.st35{fill:#7E1FAF;}
	.st36{fill:#AE4BD5;}
	.st37{fill:#9332BF;}
	.st38{fill:#7719AA;}
	.st39{fill:#0078D4;}
	.st40{fill:#1490DF;}
	.st41{fill:#0364B8;}
	.st42{fill:#28A8EA;}
	.st43{fill:#41A5ED;}
	.st44{fill:#2C7BD5;}
	.st45{fill:#195ABE;}
	.st46{fill:#103E91;}
	.st47{fill:#2166C3;}
	.st48{opacity:0.2;}
</style><g
     id="g22"
     transform="translate(0.4,-5)"><path
       class="st27"
       d="m 120.2,22.8 h -86 V 9.1 C 34.2,6.8 36,5 38.2,5 h 77.9 c 2.3,0 4.1,1.8 4.1,4.1 z"
       id="path4" /><rect
       class="st28"
       height="26.6"
       width="28.700001"
       x="34.200001"
       y="22.799999"
       id="rect6" /><rect
       class="st14"
       height="26.6"
       width="28.700001"
       x="62.900002"
       y="22.799999"
       id="rect8" /><rect
       class="st29"
       height="26.6"
       width="28.700001"
       x="91.599998"
       y="22.799999"
       id="rect10" /><rect
       class="st30"
       height="26.6"
       width="28.700001"
       x="34.200001"
       y="49.400002"
       id="rect12" /><rect
       class="st31"
       height="26.6"
       width="28.700001"
       x="62.900002"
       y="49.400002"
       id="rect14" /><rect
       class="st14"
       height="26.6"
       width="28.700001"
       x="91.599998"
       y="49.400002"
       id="rect16" /><rect
       class="st27"
       height="26.6"
       width="28.700001"
       x="62.900002"
       y="75.900002"
       id="rect18" /><rect
       class="st30"
       height="26.6"
       width="28.700001"
       x="91.599998"
       y="75.900002"
       id="rect20" /></g><path
     class="st32"
     d="M 127.3,64.1 120.7,68 V 56.8 l 6.5,3.6 c 1.5,0.7 1.5,2.8 0.1,3.7 z"
     id="path24" /><path
     class="st33"
     d="m 127.3,64.1 -0.6,0.4 v 0 l -0.7,0.4 -5.3,3.1 v -0.1 l -88.4,50.6 h 89.1 c 3.8,0 6.8,-3.1 6.8,-6.8 l 0.1,-49.4 c 0.1,0.6 -0.3,1.4 -1,1.8 z"
     id="path26" /><g
     id="g30"
     transform="translate(0.4,-5)"><path
       class="st14"
       d="M 122,123.5 H 32.8 C 29,123.5 26,120.4 26,116.7 V 68.5 Z"
       id="path28" /></g><path
     class="st30"
     d="M 59.4,91.5 H 6.4 C 2.9,91.5 0,88.6 0,85.1 V 32.9 c 0,-3.5 2.9,-6.4 6.4,-6.4 h 53 c 3.5,0 6.4,2.9 6.4,6.4 v 52.2 c 0,3.5 -2.8,6.4 -6.4,6.4 z"
     id="path32" /><g
     id="g36"
     transform="translate(0.4,-5)"><path
       class="st5"
       d="m 32.5,82.9 c -10.3,0 -16.8,-7.8 -16.8,-18.2 0,-11 7.1,-18.8 17.3,-18.8 10.6,0 16.8,7.9 16.8,18.1 0.1,12.1 -7.3,18.9 -17.3,18.9 z m 0.4,-5.2 c 6.4,0 10,-5.9 10,-13.4 0,-6.8 -3.4,-13.1 -10,-13.1 -6.6,0 -10.1,6.2 -10.1,13.4 0,7.2 3.6,13.1 10.1,13.1 z"
       id="path34" /></g><path
     class="st48"
     d="m 65.9,32.3 c 0,0.2 0,0.4 0,0.6 v 52.2 c 0,3.5 -2.9,6.4 -6.4,6.4 H 26.4 v 5.7 h 38.4 c 3.5,0 6.4,-2.9 6.4,-6.4 V 38.6 c 0,-3.2 -2.3,-5.9 -5.3,-6.3 z"
     id="path38" /></svg>
