<?xml version="1.0" encoding="UTF-8" standalone="no"?>
<svg
   xmlns:dc="http://purl.org/dc/elements/1.1/"
   xmlns:cc="http://creativecommons.org/ns#"
   xmlns:rdf="http://www.w3.org/1999/02/22-rdf-syntax-ns#"
   xmlns:svg="http://www.w3.org/2000/svg"
   xmlns="http://www.w3.org/2000/svg"
   xmlns:sodipodi="http://sodipodi.sourceforge.net/DTD/sodipodi-0.dtd"
   xmlns:inkscape="http://www.inkscape.org/namespaces/inkscape"
   id="Capa_1"
   version="1.1"
   viewBox="0 0 127.50085 116.6"
   xml:space="preserve"
   sodipodi:docname="teams.svg"
   width="127.50085"
   height="116.6"
   inkscape:version="1.0.2-2 (e86c870879, 2021-01-15)"><metadata
     id="metadata25"><rdf:RDF><cc:Work
         rdf:about=""><dc:format>image/svg+xml</dc:format><dc:type
           rdf:resource="http://purl.org/dc/dcmitype/StillImage" /><dc:title></dc:title></cc:Work></rdf:RDF></metadata><defs
     id="defs23" /><sodipodi:namedview
     pagecolor="#ffffff"
     bordercolor="#666666"
     borderopacity="1"
     objecttolerance="10"
     gridtolerance="10"
     guidetolerance="10"
     inkscape:pageopacity="0"
     inkscape:pageshadow="2"
     inkscape:window-width="1920"
     inkscape:window-height="1017"
     id="namedview21"
     showgrid="false"
     fit-margin-top="0"
     fit-margin-left="0"
     fit-margin-right="0"
     fit-margin-bottom="0"
     inkscape:zoom="4.695631"
     inkscape:cx="55.416906"
     inkscape:cy="76.713701"
     inkscape:window-x="-8"
     inkscape:window-y="-8"
     inkscape:window-maximized="1"
     inkscape:current-layer="Capa_1" /><style
     type="text/css"
     id="style2">
	.st0{fill:#21A365;}
	.st1{fill:#107C41;}
	.st2{fill:#185B37;}
	.st3{fill:#33C481;}
	.st4{fill:#17864C;}
	.st5{fill:#FFFFFF;}
	.st6{fill:#036C70;}
	.st7{fill:#1A9BA1;}
	.st8{fill:#37C6D0;}
	.st9{fill:#04878B;}
	.st10{fill:#4F59CA;}
	.st11{fill:#7B82EA;}
	.st12{fill:#4C53BB;}
	.st13{fill:#0F78D5;}
	.st14{fill:#29A7EB;}
	.st15{fill:#0358A8;}
	.st16{fill:#0F79D6;}
	.st17{fill:#038387;}
	.st18{fill:#048A8E;}
	.st19{fill:#C8421D;}
	.st20{fill:#FF8F6A;}
	.st21{fill:#ED6B47;}
	.st22{fill:#891323;}
	.st23{fill:#AF2131;}
	.st24{fill:#C94E60;}
	.st25{fill:#E08195;}
	.st26{fill:#B42839;}
	.st27{fill:#0464B8;}
	.st28{fill:#0377D4;}
	.st29{fill:#4FD8FF;}
	.st30{fill:#1681D7;}
	.st31{fill:#0178D4;}
	.st32{fill:#042071;}
	.st33{fill:#168FDE;}
	.st34{fill:#CA64EA;}
	.st35{fill:#7E1FAF;}
	.st36{fill:#AE4BD5;}
	.st37{fill:#9332BF;}
	.st38{fill:#7719AA;}
	.st39{fill:#0078D4;}
	.st40{fill:#1490DF;}
	.st41{fill:#0364B8;}
	.st42{fill:#28A8EA;}
	.st43{fill:#41A5ED;}
	.st44{fill:#2C7BD5;}
	.st45{fill:#195ABE;}
	.st46{fill:#103E91;}
	.st47{fill:#2166C3;}
	.st48{opacity:0.2;}
</style><circle
     class="st10"
     cx="111"
     cy="24.700001"
     r="13"
     id="circle4" /><path
     class="st10"
     d="m 108.2,99.3 h -2 C 95.5,99.3 86.9,90.6 86.9,80 V 49.4 c 0,-3.1 2.5,-5.5 5.5,-5.5 H 122 c 3.1,0 5.5,2.5 5.5,5.5 v 30.5 c 0.1,10.7 -8.6,19.4 -19.3,19.4 z"
     id="path6" /><circle
     class="st11"
     cx="70.200005"
     cy="18.700001"
     r="18.700001"
     id="circle8" /><path
     class="st11"
     d="M 70.3,116.6 H 67.1 C 50.3,116.6 36.6,102.9 36.6,86.1 V 48.6 c 0,-2.5 2.1,-4.6 4.6,-4.6 h 55 c 2.5,0 4.6,2.1 4.6,4.6 v 37.5 c 0,16.8 -13.6,30.5 -30.5,30.5 z"
     id="path10" /><path
     class="st12"
     d="M 59.4,91.7 H 6.4 C 2.9,91.7 0,88.8 0,85.3 V 33.1 c 0,-3.5 2.9,-6.4 6.4,-6.4 h 53 c 3.5,0 6.4,2.9 6.4,6.4 v 52.2 c 0,3.5 -2.8,6.4 -6.4,6.4 z"
     id="path12" /><g
     id="g16"
     transform="translate(-0.1,-5.5)"><path
       class="st5"
       d="M 29.4,52.7 H 19 v -5.5 h 27.5 v 5.5 H 36.1 V 83 H 29.5 V 52.7 Z"
       id="path14" /></g><path
     class="st48"
     d="m 65.9,44 v 41.2 c 0,3.5 -2.9,6.4 -6.4,6.4 H 37.1 l 1.5,5.7 h 26.3 c 3.5,0 6.4,-2.9 6.4,-6.4 V 44 Z"
     id="path18" /></svg>
