<?xml version="1.0" encoding="UTF-8" standalone="no"?>
<svg
   xmlns:dc="http://purl.org/dc/elements/1.1/"
   xmlns:cc="http://creativecommons.org/ns#"
   xmlns:rdf="http://www.w3.org/1999/02/22-rdf-syntax-ns#"
   xmlns:svg="http://www.w3.org/2000/svg"
   xmlns="http://www.w3.org/2000/svg"
   xmlns:sodipodi="http://sodipodi.sourceforge.net/DTD/sodipodi-0.dtd"
   xmlns:inkscape="http://www.inkscape.org/namespaces/inkscape"
   height="459.99799"
   version="1.1"
   viewBox="0 0 459.94052 459.99799"
   width="459.94052"
   xml:space="preserve"
   id="svg12"
   sodipodi:docname="trello.svg"
   inkscape:version="1.0.2-2 (e86c870879, 2021-01-15)"><metadata
     id="metadata18"><rdf:RDF><cc:Work
         rdf:about=""><dc:format>image/svg+xml</dc:format><dc:type
           rdf:resource="http://purl.org/dc/dcmitype/StillImage" /><dc:title></dc:title></cc:Work></rdf:RDF></metadata><defs
     id="defs16" /><sodipodi:namedview
     pagecolor="#ffffff"
     bordercolor="#666666"
     borderopacity="1"
     objecttolerance="10"
     gridtolerance="10"
     guidetolerance="10"
     inkscape:pageopacity="0"
     inkscape:pageshadow="2"
     inkscape:window-width="1920"
     inkscape:window-height="1017"
     id="namedview14"
     showgrid="false"
     fit-margin-top="0"
     fit-margin-left="0"
     fit-margin-right="0"
     fit-margin-bottom="0"
     inkscape:zoom="1.1739077"
     inkscape:cx="231.71674"
     inkscape:cy="272.91347"
     inkscape:window-x="-8"
     inkscape:window-y="-8"
     inkscape:window-maximized="1"
     inkscape:current-layer="svg12" /><g
     id="_x33_39-trello"
     transform="translate(-26.029778,-26.001)"><g
       id="g8"><path
         d="M 428.88,26.001 H 83.678 c -31.83,0 -57.602,25.773 -57.602,57.5 -0.104,0 0,-4.107 0,344.998 0,31.728 25.772,57.5 57.499,57.5 H 428.78 c 31.624,-0.206 57.19,-25.874 57.19,-57.5 V 83.501 c 0.101,-31.625 -25.465,-57.294 -57.09,-57.5 z"
         style="fill:#007bc2"
         id="path2" /><path
         d="m 228.351,374.386 c -0.205,15.095 -12.423,27.315 -27.62,27.315 h -84.915 c -15.197,0.102 -27.62,-12.116 -27.723,-27.315 V 113.381 c 0,-15.197 12.32,-27.621 27.62,-27.621 h 85.12 c 15.196,0 27.621,12.322 27.621,27.621 v 261.005 z"
         style="fill:#ffffff"
         id="path4" /><path
         d="m 426.622,259.389 c 0,15.197 -12.322,27.62 -27.622,27.62 h -83.169 c -15.195,0 -27.619,-12.319 -27.619,-27.62 V 113.482 c 0,-15.196 12.32,-27.62 27.517,-27.62 H 399 c 15.197,0 27.622,12.321 27.622,27.62 z"
         style="fill:#ffffff"
         id="path6" /></g></g><g
     id="Layer_1"
     transform="translate(-26.029778,-26.001)" /></svg>
