<?xml version="1.0" encoding="UTF-8" standalone="no"?>
<svg
   xmlns:dc="http://purl.org/dc/elements/1.1/"
   xmlns:cc="http://creativecommons.org/ns#"
   xmlns:rdf="http://www.w3.org/1999/02/22-rdf-syntax-ns#"
   xmlns:svg="http://www.w3.org/2000/svg"
   xmlns="http://www.w3.org/2000/svg"
   xmlns:sodipodi="http://sodipodi.sourceforge.net/DTD/sodipodi-0.dtd"
   xmlns:inkscape="http://www.inkscape.org/namespaces/inkscape"
   height="403.57999"
   version="1.1"
   viewBox="0 0 459.99799 403.57999"
   width="459.99799"
   xml:space="preserve"
   id="svg12"
   sodipodi:docname="wechat.svg"
   inkscape:version="1.0.2-2 (e86c870879, 2021-01-15)"><metadata
     id="metadata18"><rdf:RDF><cc:Work
         rdf:about=""><dc:format>image/svg+xml</dc:format><dc:type
           rdf:resource="http://purl.org/dc/dcmitype/StillImage" /><dc:title></dc:title></cc:Work></rdf:RDF></metadata><defs
     id="defs16" /><sodipodi:namedview
     pagecolor="#ffffff"
     bordercolor="#666666"
     borderopacity="1"
     objecttolerance="10"
     gridtolerance="10"
     guidetolerance="10"
     inkscape:pageopacity="0"
     inkscape:pageshadow="2"
     inkscape:window-width="1920"
     inkscape:window-height="1017"
     id="namedview14"
     showgrid="false"
     fit-margin-top="0"
     fit-margin-left="0"
     fit-margin-right="0"
     fit-margin-bottom="0"
     inkscape:zoom="1.1739077"
     inkscape:cx="258.69182"
     inkscape:cy="220.50271"
     inkscape:window-x="-8"
     inkscape:window-y="-8"
     inkscape:window-maximized="1"
     inkscape:current-layer="svg12" /><g
     id="_x33_71-wechat"
     transform="translate(-26.001,-54.21)"><g
       id="g8"><g
         id="g6"><path
           d="m 342.248,169.517 c 8.712,0 17.221,0.724 25.616,1.759 C 352.687,104.625 282.682,54.21 198.503,54.21 c -95.28,0 -172.502,64.541 -172.502,144.134 0,45.889 25.819,86.602 65.866,112.945 l -22.742,45.605 61.953,-26.608 c 13.285,4.731 27.09,8.627 41.835,10.44 -2.015,-8.796 -3.16,-17.813 -3.16,-27.068 0,-79.48 77.362,-144.141 172.495,-144.141 z m -86.245,-50.451 c 11.905,0 21.56,9.685 21.56,21.623 0,11.942 -9.654,21.62 -21.56,21.62 -11.912,0 -21.563,-9.678 -21.563,-21.62 0,-11.939 9.651,-21.623 21.563,-21.623 z m -115.002,43.243 c -11.907,0 -21.562,-9.678 -21.562,-21.62 0,-11.938 9.656,-21.623 21.562,-21.623 11.906,0 21.563,9.685 21.563,21.623 -0.001,11.942 -9.658,21.62 -21.563,21.62 z"
           style="fill:#51c332"
           id="path2" /><path
           d="m 485.999,313.656 c 0,-63.684 -64.376,-115.312 -143.751,-115.312 -79.378,0 -143.745,51.628 -143.745,115.312 0,63.679 64.367,115.308 143.745,115.308 13.054,0 25.471,-1.845 37.519,-4.465 l 77.483,33.291 -26.798,-53.701 c 33.583,-21.106 55.547,-53.562 55.547,-90.433 z m -186.874,-7.208 c -11.906,0 -21.563,-9.681 -21.563,-21.625 0,-11.938 9.656,-21.616 21.563,-21.616 11.91,0 21.561,9.682 21.561,21.616 0,11.945 -9.653,21.625 -21.561,21.625 z m 86.248,0 c -11.912,0 -21.561,-9.681 -21.561,-21.625 0,-11.938 9.648,-21.616 21.561,-21.616 11.911,0 21.563,9.682 21.563,21.616 0,11.945 -9.652,21.625 -21.563,21.625 z"
           style="fill:#51c332"
           id="path4" /></g></g></g><g
     id="Layer_1"
     transform="translate(-26.001,-54.21)" /></svg>
